# xmcd CD database file
#
# Track frame offsets:
#	150
#	13502
#	29179
#	43406
#	57483
#	76853
#	90180
#	106157
#	119434
#	129534
#	143361
#	158038
#	163490
#	176117
#	190169
#	206521
#	225423
#	240575
#	257827
#
# Disc length: 3630 seconds
#
# Revision: 0
# Processed by: cddbd v1.4PL0 Copyright (c) Steve Scherf et al.
# Submitted via: CDex 1.50beta9
#
DISCID=fe0e2c13
DTITLE=Duke Ellington - Greatest Hits
DYEAR=2001
DGENRE=Jazz
TTITLE0=Cotton club stomp
TTITLE1=Solitude
TTITLE2=Harlem Speaks
TTITLE3=Saturday night function
TTITLE4=Black and Tan Fantasy
TTITLE5=Jungle Nights in Harlem
TTITLE6=Echoes of the Jungle
TTITLE7=In a sentimental mood
TTITLE8=Soul call
TTITLE9=Merry go-round
TTITLE10=Delta serenade
TTITLE11=Creole love call
TTITLE12=saratoga swing
TTITLE13=Mood indigo
TTITLE14=East St.Louis Toodle-Oo
TTITLE15=Rockin' In Rhythm
TTITLE16=Country gal
TTITLE17=The Mooche
TTITLE18=Clarinet lament (Barney's Concerto)
EXTD=YEAR: 2001
EXTT0=
EXTT1=
EXTT2=
EXTT3=
EXTT4=
EXTT5=
EXTT6=
EXTT7=
EXTT8=
EXTT9=
EXTT10=
EXTT11=
EXTT12=
EXTT13=
EXTT14=
EXTT15=
EXTT16=
EXTT17=
EXTT18=
PLAYORDER=
